:SAMPLES-PER-SECOND 30
:FULLY-SPECIFIED
:DEGREES
159
root  34.80450187 36.49692686 -14.85928062 9.437983513 -7.665047169 4.712870598
lowerback  -6.834469795 -1.541779995 -0.9026868343
upperback  -4.103509903 -1.514899969 -4.295149803
thorax  -0.498540014 -0.5889179707 -4.02696991
lowerneck  1.309200048 -19.64805412 -12.85900021
upperneck  7.461890221 -27.55470085 16.08189964
head  6.068705559 -13.30610847 4.666206837
lclavicle  0 -4.497500157e-015 -2.743230041e-014
lhumerus  -49.88980103 30.01569939 59.91690063
lradius  -4.010473447e-007 -6.507048965e-006 29.84350014
lwrist  4.824992743e-007 -3.790274832e-007 -29.99920082
lhand  -4.447260948e-031 -37.43909836 -10.81359959
lfingers  90 7.125020027 -90
lthumb  95.0998741 -25.62695715 101.658951
rclavicle  0 -4.497500157e-015 -2.743230041e-014
rhumerus  -14.73950005 -34.97229767 6.632812977
rradius  -5.16745672e-007 2.214343908e-008 37.93050003
rwrist  -0.0001011603963 -0.001600692281 -166.3000031
rhand  -1.773965891e-031 5.579090118 -7.313809872
rfingers  -90 -7.125020027 -90
rthumb  -84.68064988 -8.797626782 -58.66831746
rfemur  -14.53800583 16.03313065 11.42698383
rtibia  -1.8901366 -2.458414555 22.26682281
rfoot  -0.02545903251 -23.76226425 -33.9208374
rtoes  3.971677195 19.61752419 -101.6839199
lfemur  -9.159643173 -16.78960991 -21.83428955
ltibia  3.127207041 -2.142799139 15.02191925
lfoot  1.654393077 -21.69391441 38.83736801
ltoes  -8.634978259 -18.10912451 -116.0386206
160
root  34.80644226 36.49685477 -14.86120299 9.427347183 -7.637077332 4.706749439
lowerback  -6.815899372 -1.545750022 -0.9247720242
upperback  -4.110640049 -1.518779993 -4.298190117
thorax  -0.5158810019 -0.5901579857 -4.017399788
lowerneck  1.304450035 -19.65102005 -12.86120033
upperneck  7.465680122 -27.55899811 16.09090042
head  6.072928905 -13.30798435 4.667556763
lclavicle  0 -4.497500157e-015 -2.743230041e-014
lhumerus  -49.93980026 29.98940086 59.89250183
lradius  -0.008242690936 -6.507048965e-006 29.85148621
lwrist  4.824992743e-007 -3.790274832e-007 -30.05189896
lhand  -4.445924607e-031 -37.41659927 -10.87290001
lfingers  90 7.125020027 -90
lthumb  95.10245953 -25.6857984 101.6404976
rclavicle  0 -4.497500157e-015 -2.743230041e-014
rhumerus  -14.81910133 -34.80030441 6.657553673
rradius  -5.16745672e-007 2.214343908e-008 37.98379898
rwrist  -0.0001011603963 -0.001600692281 -166.2259979
rhand  -1.773706876e-031 5.492770195 -7.206250191
rfingers  -90 -7.125020027 -90
rthumb  -84.64503357 -8.883896529 -58.74381349
rfemur  -14.51968002 16.0540638 11.43437672
rtibia  -1.887533545 -2.440925121 22.25756454
rfoot  -0.02615829743 -23.7274189 -33.9622612
rtoes  3.945574259 19.62259141 -101.606182
lfemur  -9.157195091 -16.76713181 -21.81680679
ltibia  3.120361328 -2.111523151 15.02266693
lfoot  1.66103816 -21.75785637 38.83831787
ltoes  -8.64839335 -18.10288893 -116.081787
161
root  34.80787502 36.49730833 -14.86384775 9.41638279 -7.612886906 4.716682434
lowerback  -6.824710369 -1.558650017 -0.9638241529
upperback  -4.096189976 -1.534319997 -4.284570217
thorax  -0.4954000115 -0.5966031551 -3.982359886
lowerneck  1.276319981 -19.65410995 -12.80420017
upperneck  7.439119816 -27.55480003 16.05820084
head  6.055774212 -13.30912971 4.65178299
lclavicle  0 -4.497500157e-015 -2.743230041e-014
lhumerus  -49.94010162 29.94000053 59.93349838
lradius  -0.01692976989 -6.507048965e-006 29.86400986
lwrist  4.824992743e-007 -3.790274832e-007 -29.94569969
lhand  -4.448949928e-031 -37.46749878 -10.8416996
lfingers  90 7.125020027 -90
lthumb  95.11952536 -25.65331723 101.6919692
rclavicle  0 -4.497500157e-015 -2.743230041e-014
rhumerus  -14.90359974 -34.89839935 6.631579399
rradius  -5.16745672e-007 2.214343908e-008 38.0821991
rwrist  -0.0001011603963 -0.001600692281 -165.9889984
rhand  -1.773071127e-031 5.274819851 -7.382599831
rfingers  -90 -7.125020027 -90
rthumb  -84.78979798 -8.718670628 -58.97044486
rfemur  -14.52867508 16.0715065 11.43303204
rtibia  -1.901173949 -2.421744823 22.29640579
rfoot  -0.04647495598 -23.69165993 -33.9948349
rtoes  3.962538615 19.61930219 -101.6567018
lfemur  -9.139901161 -16.79965782 -21.83701134
ltibia  3.124849081 -2.131446362 14.9979744
lfoot  1.62940073 -21.69927979 38.80644989
ltoes  -8.620005514 -18.11606981 -115.990459
162
root  34.80869804 36.49932381 -14.86690401 9.408397675 -7.600634098 4.731678963
lowerback  -6.830029488 -1.565760016 -0.9698111415
upperback  -4.093959808 -1.544549942 -4.267109871
thorax  -0.4900520146 -0.6027770042 -3.961499929
lowerneck  1.290930033 -19.65639687 -12.79669952
upperneck  7.411409855 -27.54199791 16.03230095
head  6.038197994 -13.30961037 4.648293495
lclavicle  0 -4.497500157e-015 -2.743230041e-014
lhumerus  -49.9742012 29.95750046 59.93119812
lradius  -0.01909524202 -6.507048965e-006 29.86411667
lwrist  4.824992743e-007 -3.790274832e-007 -29.94179916
lhand  -4.452818444e-031 -37.53239822 -10.84309959
lfingers  90 7.125020027 -90
lthumb  95.1505054 -25.65221892 101.7615835
rclavicle  0 -4.497500157e-015 -2.743230041e-014
rhumerus  -14.95950127 -35.09230423 6.623904705
rradius  -5.16745672e-007 2.214343908e-008 38.14849854
rwrist  -0.0001011603963 -0.001600692281 -165.9140015
rhand  -1.772708501e-031 5.146309853 -7.215970039
rfingers  -90 -7.125020027 -90
rthumb  -84.73383526 -8.853072359 -59.08255118
rfemur  -14.54259109 16.06890678 11.42390442
rtibia  -1.912982821 -2.416918039 22.33540154
rfoot  -0.06256659329 -23.68196297 -34.0004158
rtoes  3.958235528 19.62013791 -101.6438865
lfemur  -9.130714417 -16.8399601 -21.85327148
ltibia  3.130616665 -2.139815331 14.97326183
lfoot  1.614119053 -21.66749382 38.81459808
ltoes  -8.631130548 -18.11091076 -116.0262423
